<svg width="102" height="89" viewBox="0 0 102 89" fill="none" xmlns="http://www.w3.org/2000/svg">
<g clip-path="url(#clip0)">
<path d="M7.11365 73.6016C3.60638 73.6016 -2.28882e-05 76.411 -2.28882e-05 81.3285C-2.28882e-05 85.8241 3.17085 88.9994 7.11365 88.9994C10.3682 88.9994 11.8188 86.8157 11.8188 86.8157V87.7676C11.8188 88.2175 12.2443 88.7195 12.771 88.7195H15.1235V73.9375H11.8188V75.8133C11.8188 75.8133 10.3561 73.6016 7.11365 73.6016ZM7.70234 76.6242C10.5896 76.6242 12.1041 79.1624 12.1041 81.3274C12.1041 83.7388 10.3059 86.029 7.70847 86.029C5.53719 86.029 3.36218 84.2712 3.36218 81.2956C3.36218 78.6096 5.23391 76.6242 7.70234 76.6242Z" fill="black"/>
<path d="M19.7166 88.7195C19.2088 88.7195 18.7644 88.3554 18.7644 87.7676V73.9375H22.0691V75.7667C22.818 74.6416 24.2811 73.597 26.5267 73.597C30.1971 73.597 32.1515 76.5218 32.1515 79.2568V88.7195H29.855C29.2528 88.7195 28.8467 88.2156 28.8467 87.7116V79.9847C28.8467 78.4687 27.9176 76.6276 25.7686 76.6276C23.4498 76.6276 22.0691 78.8182 22.0691 80.8806V88.7195H19.7166Z" fill="black"/>
<path d="M41.7858 73.6015C38.2785 73.6015 34.6721 76.411 34.6721 81.3285C34.6721 85.8241 37.843 88.9994 41.7858 88.9994C45.0404 88.9994 46.4909 86.8157 46.4909 86.8157V87.7676C46.4909 88.2175 46.9164 88.7194 47.4431 88.7194H49.7957V66.5465H46.4909V75.8132C46.4909 75.8132 45.0282 73.6015 41.7858 73.6015ZM42.3745 76.6241C45.2617 76.6241 46.7762 79.1624 46.7762 81.3274C46.7762 83.7388 44.978 86.029 42.3806 86.029C40.2093 86.029 38.0343 84.2711 38.0343 81.2955C38.0343 78.6095 39.906 76.6241 42.3745 76.6241Z" fill="black"/>
<path d="M54.3888 88.7195C53.881 88.7195 53.4365 88.3554 53.4365 87.7676V73.9375H56.7413V76.4012C57.3102 75.021 58.5376 73.7695 60.7183 73.7695C61.3262 73.7695 61.8945 73.8815 61.8945 73.8815V77.297C61.8945 77.297 61.1848 77.0171 60.3262 77.0171C58.0074 77.0171 56.7413 79.2077 56.7413 81.2701V88.7195H54.3888Z" fill="black"/>
<path d="M81.9473 88.7195C81.4396 88.7195 80.9951 88.3554 80.9951 87.7676V73.9375H84.2999V88.7195H81.9473Z" fill="black"/>
<path d="M93.9901 73.6015C90.4828 73.6015 86.8764 76.411 86.8764 81.3285C86.8764 85.8241 90.0473 88.9994 93.9901 88.9994C97.2447 88.9994 98.6952 86.8157 98.6952 86.8157V87.7676C98.6952 88.2175 99.1207 88.7194 99.6474 88.7194H102V66.5465H98.6952V75.8132C98.6952 75.8132 97.2325 73.6015 93.9901 73.6015ZM94.5788 76.6241C97.466 76.6241 98.9805 79.1624 98.9805 81.3274C98.9805 83.7388 97.1823 86.029 94.5849 86.029C92.4136 86.029 90.2386 84.2711 90.2386 81.2955C90.2386 78.6095 92.1103 76.6241 94.5788 76.6241Z" fill="black"/>
<path d="M82.6214 70.7492C83.8286 70.7492 84.8072 69.771 84.8072 68.5643C84.8072 67.3575 83.8286 66.3793 82.6214 66.3793C81.4142 66.3793 80.4356 67.3575 80.4356 68.5643C80.4356 69.771 81.4142 70.7492 82.6214 70.7492Z" fill="black"/>
<path d="M70.6101 73.5966C66.937 73.5966 62.9016 76.3373 62.9016 81.3022C62.9016 85.8265 66.3388 88.9999 70.6021 88.9999C75.8561 88.9999 78.4216 84.7778 78.4216 81.3309C78.4216 77.1011 75.1181 73.5966 70.6101 73.5966ZM70.6221 76.6817C73.1621 76.6817 75.0568 78.7281 75.0568 81.3115C75.0568 83.9398 73.0455 85.9678 70.6297 85.9678C68.387 85.9678 66.207 84.1435 66.207 81.3557C66.207 78.5214 68.2804 76.6817 70.6221 76.6817Z" fill="black"/>
<path d="M75.8942 17.2156L84.3497 2.57382C84.8269 1.753 84.5384 0.710323 83.7283 0.233353C82.9183 -0.243609 81.8641 0.0336895 81.3981 0.854519L72.8316 15.6849C66.2958 12.7011 58.9389 11.0372 51.0271 11.0372C43.1154 11.0372 35.7584 12.7011 29.2226 15.6849L20.6562 0.854519C20.179 0.0336895 19.136 -0.243609 18.3148 0.233353C17.4937 0.710323 17.2163 1.753 17.6934 2.57382L26.1489 17.2156C11.5682 25.1134 1.69236 39.8661 0.0611877 57.1368H101.993C100.362 39.8661 90.486 25.1134 75.8942 17.2156ZM27.6247 42.8278C25.2612 42.8278 23.3526 40.9088 23.3526 38.5572C23.3526 36.1946 25.2723 34.2867 27.6247 34.2867C29.9883 34.2867 31.8969 36.2057 31.8969 38.5572C31.908 40.9088 29.9883 42.8278 27.6247 42.8278ZM74.4184 42.8278C72.0549 42.8278 70.1463 40.9088 70.1463 38.5572C70.1463 36.1946 72.0659 34.2867 74.4184 34.2867C76.7819 34.2867 78.6905 36.2057 78.6905 38.5572C78.7016 40.9088 76.7819 42.8278 74.4184 42.8278Z" fill="#32DE84"/>
</g>
<defs>
<clipPath id="clip0">
<rect width="102" height="89" fill="white"/>
</clipPath>
</defs>
</svg>
