<svg width="361" height="355" viewBox="0 0 361 355" fill="none" xmlns="http://www.w3.org/2000/svg">
<rect width="361" height="355" rx="4" fill="url(#paint0_linear)" fill-opacity="0.35"/>
<path d="M249.702 131.287C249.702 129.436 248.202 127.936 246.351 127.936C244.5 127.936 243 129.436 243 131.287C243 133.137 244.5 134.638 246.351 134.638C248.202 134.638 249.702 133.137 249.702 131.287Z" fill="white"/>
<path d="M249.702 114.672C249.702 112.821 248.202 111.321 246.351 111.321C244.5 111.321 243 112.821 243 114.672C243 116.522 244.5 118.023 246.351 118.023C248.202 118.023 249.702 116.522 249.702 114.672Z" fill="white"/>
<path d="M249.702 98.0567C249.702 96.206 248.202 94.7057 246.351 94.7057C244.5 94.7057 243 96.206 243 98.0567C243 99.9073 244.5 101.408 246.351 101.408C248.202 101.408 249.702 99.9073 249.702 98.0567Z" fill="white"/>
<path d="M249.702 81.5812C249.702 79.7305 248.202 78.2302 246.351 78.2302C244.5 78.2302 243 79.7305 243 81.5812C243 83.4319 244.5 84.9321 246.351 84.9321C248.202 84.9321 249.702 83.4319 249.702 81.5812Z" fill="white"/>
<path d="M249.702 64.966C249.702 63.1154 248.202 61.6151 246.351 61.6151C244.5 61.6151 243 63.1154 243 64.966C243 66.8167 244.5 68.317 246.351 68.317C248.202 68.317 249.702 66.8167 249.702 64.966Z" fill="white"/>
<path d="M249.702 48.351C249.702 46.5003 248.202 45 246.351 45C244.5 45 243 46.5003 243 48.351C243 50.2016 244.5 51.7019 246.351 51.7019C248.202 51.7019 249.702 50.2016 249.702 48.351Z" fill="white"/>
<path d="M266.457 131.287C266.457 129.436 264.956 127.936 263.106 127.936C261.255 127.936 259.755 129.436 259.755 131.287C259.755 133.137 261.255 134.638 263.106 134.638C264.956 134.638 266.457 133.137 266.457 131.287Z" fill="white"/>
<path d="M266.457 114.672C266.457 112.821 264.956 111.321 263.106 111.321C261.255 111.321 259.755 112.821 259.755 114.672C259.755 116.522 261.255 118.023 263.106 118.023C264.956 118.023 266.457 116.522 266.457 114.672Z" fill="white"/>
<path d="M266.457 98.0567C266.457 96.206 264.956 94.7057 263.106 94.7057C261.255 94.7057 259.755 96.206 259.755 98.0567C259.755 99.9073 261.255 101.408 263.106 101.408C264.956 101.408 266.457 99.9073 266.457 98.0567Z" fill="white"/>
<path d="M266.457 81.5812C266.457 79.7305 264.956 78.2302 263.106 78.2302C261.255 78.2302 259.755 79.7305 259.755 81.5812C259.755 83.4319 261.255 84.9321 263.106 84.9321C264.956 84.9321 266.457 83.4319 266.457 81.5812Z" fill="white"/>
<path d="M266.457 64.966C266.457 63.1154 264.956 61.6151 263.106 61.6151C261.255 61.6151 259.755 63.1154 259.755 64.966C259.755 66.8167 261.255 68.317 263.106 68.317C264.956 68.317 266.457 66.8167 266.457 64.966Z" fill="white"/>
<path d="M266.457 48.351C266.457 46.5003 264.956 45 263.106 45C261.255 45 259.755 46.5003 259.755 48.351C259.755 50.2016 261.255 51.7019 263.106 51.7019C264.956 51.7019 266.457 50.2016 266.457 48.351Z" fill="white"/>
<path d="M283.353 131.287C283.353 129.436 281.852 127.936 280.002 127.936C278.151 127.936 276.651 129.436 276.651 131.287C276.651 133.137 278.151 134.638 280.002 134.638C281.852 134.638 283.353 133.137 283.353 131.287Z" fill="white"/>
<path d="M283.351 114.672C283.351 112.821 281.851 111.321 280 111.321C278.149 111.321 276.649 112.821 276.649 114.672C276.649 116.522 278.149 118.023 280 118.023C281.851 118.023 283.351 116.522 283.351 114.672Z" fill="white"/>
<path d="M283.351 98.0567C283.351 96.206 281.851 94.7057 280 94.7057C278.149 94.7057 276.649 96.206 276.649 98.0567C276.649 99.9073 278.149 101.408 280 101.408C281.851 101.408 283.351 99.9073 283.351 98.0567Z" fill="white"/>
<path d="M283.351 81.5812C283.351 79.7305 281.851 78.2302 280 78.2302C278.149 78.2302 276.649 79.7305 276.649 81.5812C276.649 83.4319 278.149 84.9321 280 84.9321C281.851 84.9321 283.351 83.4319 283.351 81.5812Z" fill="white"/>
<path d="M283.351 64.966C283.351 63.1154 281.851 61.6151 280 61.6151C278.149 61.6151 276.649 63.1154 276.649 64.966C276.649 66.8167 278.149 68.317 280 68.317C281.851 68.317 283.351 66.8167 283.351 64.966Z" fill="white"/>
<path d="M283.351 48.351C283.351 46.5003 281.851 45 280 45C278.149 45 276.649 46.5003 276.649 48.351C276.649 50.2016 278.149 51.7019 280 51.7019C281.851 51.7019 283.351 50.2016 283.351 48.351Z" fill="white"/>
<path d="M300.106 131.287C300.106 129.436 298.605 127.936 296.755 127.936C294.904 127.936 293.404 129.436 293.404 131.287C293.404 133.137 294.904 134.638 296.755 134.638C298.605 134.638 300.106 133.137 300.106 131.287Z" fill="white"/>
<path d="M300.106 114.672C300.106 112.821 298.605 111.321 296.755 111.321C294.904 111.321 293.404 112.821 293.404 114.672C293.404 116.522 294.904 118.023 296.755 118.023C298.605 118.023 300.106 116.522 300.106 114.672Z" fill="white"/>
<path d="M300.106 98.0567C300.106 96.206 298.605 94.7057 296.755 94.7057C294.904 94.7057 293.404 96.206 293.404 98.0567C293.404 99.9073 294.904 101.408 296.755 101.408C298.605 101.408 300.106 99.9073 300.106 98.0567Z" fill="white"/>
<path d="M300.106 81.5812C300.106 79.7305 298.605 78.2302 296.755 78.2302C294.904 78.2302 293.404 79.7305 293.404 81.5812C293.404 83.4319 294.904 84.9321 296.755 84.9321C298.605 84.9321 300.106 83.4319 300.106 81.5812Z" fill="white"/>
<path d="M300.106 64.966C300.106 63.1154 298.605 61.6151 296.755 61.6151C294.904 61.6151 293.404 63.1154 293.404 64.966C293.404 66.8167 294.904 68.317 296.755 68.317C298.605 68.317 300.106 66.8167 300.106 64.966Z" fill="white"/>
<path d="M300.106 48.351C300.106 46.5003 298.605 45 296.755 45C294.904 45 293.404 46.5003 293.404 48.351C293.404 50.2016 294.904 51.7019 296.755 51.7019C298.605 51.7019 300.106 50.2016 300.106 48.351Z" fill="white"/>
<path d="M317 131.287C317 129.436 315.5 127.936 313.649 127.936C311.798 127.936 310.298 129.436 310.298 131.287C310.298 133.137 311.798 134.638 313.649 134.638C315.5 134.638 317 133.137 317 131.287Z" fill="white"/>
<path d="M317 114.672C317 112.821 315.5 111.321 313.649 111.321C311.798 111.321 310.298 112.821 310.298 114.672C310.298 116.522 311.798 118.023 313.649 118.023C315.5 118.023 317 116.522 317 114.672Z" fill="white"/>
<path d="M317 98.0567C317 96.206 315.5 94.7057 313.649 94.7057C311.798 94.7057 310.298 96.206 310.298 98.0567C310.298 99.9073 311.798 101.408 313.649 101.408C315.5 101.408 317 99.9073 317 98.0567Z" fill="white"/>
<path d="M317 81.5812C317 79.7305 315.5 78.2302 313.649 78.2302C311.798 78.2302 310.298 79.7305 310.298 81.5812C310.298 83.4319 311.798 84.9321 313.649 84.9321C315.5 84.9321 317 83.4319 317 81.5812Z" fill="white"/>
<path d="M317 64.966C317 63.1154 315.5 61.6151 313.649 61.6151C311.798 61.6151 310.298 63.1154 310.298 64.966C310.298 66.8167 311.798 68.317 313.649 68.317C315.5 68.317 317 66.8167 317 64.966Z" fill="white"/>
<path d="M317 48.351C317 46.5003 315.5 45 313.649 45C311.798 45 310.298 46.5003 310.298 48.351C310.298 50.2016 311.798 51.7019 313.649 51.7019C315.5 51.7019 317 50.2016 317 48.351Z" fill="white"/>
<defs>
<linearGradient id="paint0_linear" x1="4.63023e-06" y1="177" x2="361" y2="191" gradientUnits="userSpaceOnUse">
<stop stop-color="#84EEEB"/>
<stop offset="1" stop-color="#CCD1FF"/>
</linearGradient>
</defs>
</svg>
