<svg width="168" height="21" viewBox="0 0 168 21" fill="none" xmlns="http://www.w3.org/2000/svg">
<path d="M165.655 2.24225C165.824 2.24225 165.993 2.24225 166.09 2.07348C166.114 2.00115 166.138 1.92882 166.138 1.85649C166.138 1.71183 166.066 1.59127 165.945 1.51894C165.824 1.47072 165.703 1.47072 165.437 1.47072H165.316V2.21814H165.655V2.24225ZM165.437 1.06085C165.8 1.06085 165.969 1.06085 166.114 1.13318C166.598 1.27784 166.646 1.71183 166.646 1.85649C166.646 1.8806 166.646 1.97704 166.622 2.07348C166.598 2.16992 166.549 2.3628 166.283 2.53157C166.235 2.55568 166.235 2.55568 166.162 2.57979L166.767 3.68886H166.187L165.655 2.67623H165.316V3.68886H164.784V1.06085H165.437ZM165.655 4.77382C166.96 4.77382 168 3.71297 168 2.43513C168 1.13318 166.96 0.0964408 165.655 0.0964408C164.373 0.0964408 163.333 1.13318 163.333 2.43513C163.333 3.71297 164.373 4.77382 165.655 4.77382ZM163.817 2.43513C163.817 1.4225 164.639 0.578645 165.655 0.578645C166.694 0.578645 167.516 1.4225 167.516 2.43513C167.516 3.42365 166.67 4.26751 165.655 4.26751C164.663 4.26751 163.817 3.42365 163.817 2.43513ZM147.52 17.3111C144.425 17.3111 141.838 15.2377 141.04 12.4168H158.159L160.529 8.75201H141.016C141.789 5.93111 144.425 3.83352 147.496 3.83352H159.295L161.641 0.168771H147.23C141.451 0.168771 136.784 4.82204 136.784 10.5603C136.784 16.2985 141.451 20.9518 147.23 20.9518H159.61L161.955 17.287H147.496L147.52 17.3111ZM98.4594 20.9759C92.7047 20.9759 88.038 16.3226 88.038 10.5844C88.038 4.84615 92.7047 0.192882 98.4594 0.192882H112.87L110.501 3.85764H98.7012C94.9775 3.85764 91.9551 6.87141 91.9551 10.5844C91.9551 14.2974 94.9775 17.3111 98.7012 17.3111H113.161L110.791 20.9759H98.4111H98.4594ZM22.2936 17.3111C26.0173 17.3111 29.0639 14.2974 29.0639 10.5844C29.0639 6.87141 26.0415 3.85764 22.2936 3.85764H10.7116C6.98791 3.85764 3.96546 6.87141 3.96546 10.5844C3.96546 14.2974 6.98791 17.3111 10.7116 17.3111H22.2936ZM10.4456 20.9759C4.66667 20.9759 0 16.3226 0 10.5844C0 4.84615 4.66667 0.192882 10.4456 0.192882H22.5596C28.3143 0.192882 32.981 4.84615 32.981 10.5844C32.981 16.3226 28.3143 20.9759 22.5596 20.9759H10.4456ZM52.6632 14.2491C56.5803 14.2491 59.7237 11.0907 59.7237 7.20895C59.7237 3.32721 56.5803 0.168771 52.6632 0.168771H35.1088V20.9759H39.1226V3.83352H52.3972C54.2349 3.83352 55.7582 5.35247 55.7582 7.20895C55.7582 9.06544 54.2349 10.5603 52.3972 10.5603H41.0812L53.0259 20.9759H58.8532L50.8014 14.2491H52.6148H52.6632ZM119.012 17.3111V0.192882H115.022V18.9989C115.022 19.5293 115.216 20.0115 115.603 20.3972C115.99 20.7589 116.522 21 117.078 21H135.382L137.751 17.3352H119.036L119.012 17.3111ZM69.9275 13.6464H80.639L74.981 4.55683L64.5838 21H59.8687L72.4905 1.27784C73.0466 0.482204 73.9655 0 74.981 0C75.9482 0 76.867 0.458095 77.4231 1.22962L90.0933 21H85.3541L83.1295 17.3352H72.2971L69.9275 13.6705V13.6464Z" fill="#E32124"/>
</svg>
