<svg width="161" height="47" viewBox="0 0 161 47" fill="none" xmlns="http://www.w3.org/2000/svg">
<path d="M60.3524 19.7712C60.3524 14.8637 58.9526 12.3442 56.153 12.2063C55.039 12.1537 53.9514 12.3311 52.8933 12.7417C52.0488 13.0439 51.4803 13.3428 51.1813 13.645V25.3586C52.9722 26.482 54.5626 27.0043 55.9492 26.9222C58.8836 26.7284 60.3524 24.3469 60.3524 19.7712ZM63.806 19.9748C63.806 22.468 63.2211 24.5374 62.0447 26.1831C60.7336 28.0456 58.9165 29.0048 56.5933 29.0573C54.8419 29.1132 53.0379 28.5646 51.1813 27.4149V38.061L48.1779 36.9901V13.3592C48.6708 12.7548 49.305 12.2358 50.0739 11.7957C51.8615 10.7544 54.0335 10.219 56.59 10.1927L56.6327 10.2354C58.969 10.2058 60.7697 11.165 62.0348 13.1096C63.2145 14.8932 63.806 17.1795 63.806 19.9748Z" fill="#646464"/>
<path d="M82.1613 26.9616C82.1613 30.3056 81.8261 32.6214 81.1558 33.909C80.4822 35.1966 79.2006 36.2248 77.3079 36.9901C75.7734 37.5946 74.114 37.923 72.333 37.9789L71.8368 36.0868C73.6474 35.8405 74.9223 35.5941 75.6617 35.3477C77.1173 34.855 78.1163 34.0995 78.665 33.0878C79.1054 32.2633 79.3222 30.6899 79.3222 28.361V27.5792C77.2685 28.5121 75.1162 28.9752 72.8653 28.9752C71.3866 28.9752 70.0821 28.5121 68.9583 27.5792C67.6965 26.5642 67.0656 25.2765 67.0656 23.7162V11.2208L70.069 10.1927V22.7702C70.069 24.1137 70.5027 25.1484 71.3702 25.8744C72.2377 26.6003 73.3615 26.9485 74.7383 26.9222C76.1151 26.8926 77.5905 26.3605 79.1579 25.3192V10.646H82.1613V26.9616Z" fill="#646464"/>
<path d="M93.8856 28.8931C93.5275 28.9227 93.1989 28.9358 92.8966 28.9358C91.1977 28.9358 89.8735 28.5318 88.9271 27.7205C87.9841 26.9091 87.5109 25.789 87.5109 24.3601V12.5348H85.4539V10.646H87.5109V5.63013L90.511 4.56256V10.646H93.8856V12.5348H90.511V24.278C90.511 25.4047 90.8133 26.2029 91.4179 26.6693C91.9371 27.0536 92.7619 27.2737 93.8856 27.3296V28.8931Z" fill="#646464"/>
<path d="M112.07 28.6468H109.067V17.058C109.067 15.8788 108.791 14.8638 108.242 14.0163C107.608 13.0571 106.727 12.5775 105.597 12.5775C104.22 12.5775 102.498 13.3035 100.431 14.7554V28.6468H97.4279V0.946024L100.431 0V12.6169C102.35 11.2209 104.447 10.5212 106.724 10.5212C108.314 10.5212 109.602 11.0567 110.588 12.1242C111.577 13.1918 112.07 14.5221 112.07 16.112V28.6468Z" fill="#646464"/>
<path d="M128.033 19.2982C128.033 17.4127 127.675 15.8557 126.962 14.6239C126.114 13.1227 124.797 12.3311 123.016 12.249C119.723 12.4395 118.08 14.798 118.08 19.3179C118.08 21.3906 118.422 23.1217 119.112 24.5112C119.993 26.2817 121.314 27.1554 123.075 27.1259C126.381 27.0996 128.033 24.4915 128.033 19.2982ZM131.323 19.3179C131.323 22.0016 130.636 24.2352 129.266 26.0189C127.757 28.0161 125.674 29.0179 123.016 29.0179C120.38 29.0179 118.327 28.0161 116.845 26.0189C115.501 24.2352 114.83 22.0016 114.83 19.3179C114.83 16.7952 115.557 14.6732 117.009 12.9454C118.544 11.1124 120.561 10.1927 123.055 10.1927C125.549 10.1927 127.58 11.1124 129.144 12.9454C130.596 14.6732 131.323 16.7952 131.323 19.3179Z" fill="#646464"/>
<path d="M148.541 28.6467H145.538V16.401C145.538 15.0575 145.133 14.0096 144.325 13.2541C143.517 12.5019 142.439 12.1373 141.095 12.1669C139.669 12.1931 138.312 12.6596 137.024 13.5629V28.6467H134.02V13.1917C135.749 11.9336 137.339 11.1124 138.792 10.7281C140.162 10.3701 141.371 10.1927 142.413 10.1927C143.126 10.1927 143.796 10.2617 144.427 10.3996C145.607 10.6723 146.566 11.1781 147.305 11.9205C148.13 12.7417 148.541 13.7271 148.541 14.8801V28.6467Z" fill="#646464"/>
<path d="M18.5144 1.05695C16.9691 1.06413 15.4934 1.19587 14.195 1.42555C10.3699 2.10107 9.67543 3.51501 9.67542 6.12254V9.5663H18.7145V10.7142H9.67542H6.28313C3.65612 10.7142 1.35583 12.2927 0.63633 15.2954C-0.193604 18.7372 -0.230416 20.8849 0.63633 24.4787C1.27886 27.1538 2.81331 29.0599 5.44033 29.0599H8.54817V24.9316C8.54817 21.9491 11.1296 19.3184 14.195 19.3183H23.2235C25.7368 19.3183 27.7431 17.2498 27.7431 14.7267V6.12254C27.7431 3.67376 25.6765 1.83424 23.2235 1.42555C21.6707 1.16716 20.0596 1.04977 18.5144 1.05695ZM13.6261 3.8267C14.5598 3.8267 15.3222 4.60135 15.3222 5.55385C15.3222 6.50296 14.5598 7.27046 13.6261 7.27046C12.6891 7.27046 11.9299 6.50296 11.9299 5.55385C11.9299 4.60135 12.6891 3.8267 13.6261 3.8267Z" fill="url(#paint0_linear)"/>
<path d="M28.8703 10.7142V14.7267C28.8703 17.8375 26.232 20.4558 23.2235 20.4558H14.1949C11.7219 20.4558 9.6754 22.5716 9.6754 25.0474V33.6516C9.6754 36.1003 11.8055 37.5407 14.1949 38.2432C17.0562 39.0843 19.8 39.2363 23.2235 38.2432C25.4991 37.5846 27.7431 36.2591 27.7431 33.6516V30.2078H18.7145V29.0599H27.7431H32.2626C34.8896 29.0599 35.8685 27.2281 36.7821 24.4787C37.7259 21.6483 37.6857 18.9263 36.7821 15.2954C36.1329 12.6811 34.893 10.7142 32.2626 10.7142H28.8703ZM23.7924 32.5036C24.7294 32.5036 25.4885 33.2711 25.4885 34.2203C25.4885 35.1727 24.7294 35.9474 23.7924 35.9474C22.8587 35.9474 22.0963 35.1727 22.0963 34.2203C22.0963 33.2711 22.8587 32.5036 23.7924 32.5036Z" fill="url(#paint1_linear)"/>
<path d="M154.39 7.96935H154.916V4.66798H156.164V4.27448H153.142V4.66798H154.39V7.96935ZM156.631 7.96935H157.08V4.95417L158.057 7.96897H158.558L159.575 4.96439V7.96935H160.066V4.27448H159.417L158.305 7.43991L157.357 4.27448H156.631V7.96935Z" fill="#646464"/>
<path opacity="0.44382" d="M30.9303 44.0923C30.9303 44.4006 30.617 44.7059 30.0083 44.9908C29.3995 45.2757 28.5073 45.5345 27.3825 45.7526C26.2577 45.9706 24.9223 46.1436 23.4527 46.2616C21.9831 46.3796 20.4079 46.4403 18.8172 46.4403C17.2265 46.4403 15.6513 46.3796 14.1817 46.2616C12.7121 46.1436 11.3767 45.9706 10.2519 45.7526C9.1271 45.5345 8.23486 45.2757 7.62611 44.9908C7.01737 44.7059 6.70406 44.4006 6.70406 44.0923C6.70406 43.7839 7.01737 43.4786 7.62611 43.1937C8.23486 42.9089 9.1271 42.65 10.2519 42.432C11.3767 42.2139 12.7121 42.041 14.1817 41.923C15.6513 41.805 17.2265 41.7443 18.8172 41.7443C20.4079 41.7443 21.9831 41.805 23.4527 41.923C24.9223 42.041 26.2577 42.2139 27.3825 42.432C28.5073 42.65 29.3995 42.9089 30.0083 43.1937C30.617 43.4786 30.9303 43.7839 30.9303 44.0923Z" fill="url(#paint2_radial)"/>
<defs>
<linearGradient id="paint0_linear" x1="2.95023e-08" y1="1.05664" x2="20.837" y2="18.8189" gradientUnits="userSpaceOnUse">
<stop stop-color="#5A9FD4"/>
<stop offset="1" stop-color="#306998"/>
</linearGradient>
<linearGradient id="paint1_linear" x1="23.5752" y1="33.9307" x2="16.1009" y2="23.4534" gradientUnits="userSpaceOnUse">
<stop stop-color="#FFD43B"/>
<stop offset="1" stop-color="#FFE873"/>
</linearGradient>
<radialGradient id="paint2_radial" cx="0" cy="0" r="1" gradientUnits="userSpaceOnUse" gradientTransform="translate(18.8172 44.0923) rotate(-90) scale(2.34801 10.3241)">
<stop stop-color="#B8B8B8" stop-opacity="0.498039"/>
<stop offset="1" stop-color="#7F7F7F" stop-opacity="0"/>
</radialGradient>
</defs>
</svg>
